<?xml version="1.0" encoding="UTF-8"?>
<svg id="_レイヤー_2" data-name="レイヤー_2" xmlns="http://www.w3.org/2000/svg" xmlns:xlink="http://www.w3.org/1999/xlink" viewBox="0 0 2159.59 354.73">
  <defs>
    <style>
      .cls-1 {
        fill: none;
      }

      .cls-2 {
        clip-path: url(#clippath-1);
      }

      .cls-3 {
        clip-path: url(#clippath-2);
      }

      .cls-4 {
        fill: #fff;
      }

      .cls-5 {
        fill: #de2525;
      }

      .cls-6 {
        clip-path: url(#clippath);
      }
    </style>
    <clipPath id="clippath">
      <rect class="cls-1" x="1824.98" y="71.25" width="220.21" height="220.21"/>
    </clipPath>
    <clipPath id="clippath-1">
      <rect class="cls-1" x="1517.44" y="68.88" width="225.39" height="225.39"/>
    </clipPath>
    <clipPath id="clippath-2">
      <rect class="cls-1" x="1204.33" y="68.26" width="225.39" height="225.39"/>
    </clipPath>
  </defs>
  <g id="_レイヤー_1-2" data-name="レイヤー_1">
    <g>
      <rect class="cls-5" width="2159.59" height="354.73"/>
      <g>
        <path class="cls-4" d="M1903.22,317.87h20.19v23.89h-3.75v-1.67h-12.69v1.67h-3.75v-23.89ZM1906.98,327.23h12.69v-5.97h-12.69v5.97ZM1906.98,336.65h12.69v-6.07h-12.69v6.07Z"/>
        <path class="cls-4" d="M1928.52,320.35h9.99v-3.89h3.54v3.89h10.1v3.35h-8.72c2.62,4.56,5.34,7.29,9.61,9.85-.65,1.35-1.21,2.54-1.65,3.67-4.64-3.35-7.15-6.07-9.34-10.18v7.32h5.02v3.16h-5.02v4.29h-3.54v-4.29h-5.07v-3.16h5.07v-7.21c-2.24,4.13-4.75,6.88-9.42,10.45-.51-1.21-1.13-2.54-1.67-3.7,4.37-2.78,7.23-5.8,9.72-10.2h-8.61v-3.35Z"/>
        <path class="cls-4" d="M1954.61,319.06h3.4c-.24-.81-.51-1.62-.73-2.29l3.46-.32c.22.76.51,1.73.76,2.62h2.83v2.97h-9.72v-2.97ZM1955.2,323.46h8.61v2.65h-8.61v-2.65ZM1955.2,327.56h8.61v2.65h-8.61v-2.65ZM1955.33,331.69h8.48v10.01h-2.78v-1.27h-2.83v1.32h-2.86v-10.07ZM1958.2,337.6h2.83v-3.08h-2.83v3.08ZM1965.05,317.44h14.41v2.83h-7.69l-.4,2.16h6.67v5.26h2v2.81h-15.25v-2.81h2.43l.46-2.65h-2.19v-2.62h2.67l.38-2.16h-3.48v-2.83ZM1965.67,332.25h13.06v9.66h-3.19v-1.24h-6.69v1.24h-3.19v-9.66ZM1968.86,337.84h6.69v-2.75h-6.69v2.75ZM1970.88,325.05l-.49,2.65h4.48v-2.65h-3.99Z"/>
      </g>
      <g>
        <path class="cls-4" d="M1605.28,321.05h9.56v-4.7h3.81v4.7h9.61v13.82h-3.73v-1.43h-5.88v8.56h-3.81v-8.56h-5.86v1.51h-3.7v-13.9ZM1608.98,330.01h5.86v-5.51h-5.86v5.51ZM1618.64,324.51v5.51h5.88v-5.51h-5.88Z"/>
        <path class="cls-4" d="M1631.23,320.43h11.12l-1.08-3.67,4.08-.32c.35,1.3.67,2.62.97,3.99h9.99v3.32h-4.1c-1.08,4.24-2.86,7.64-5.61,10.45,2.56,1.67,5.8,2.92,9.96,3.81-.84,1.3-1.54,2.46-2.21,3.59-4.51-1.38-7.94-3-10.61-4.97-2.65,1.92-6.1,3.59-10.53,5.21-.43-.78-1.38-2.32-2.16-3.48,4.16-1.19,7.37-2.59,9.85-4.24-2.59-2.73-4.43-6.24-5.61-10.37h-4.05v-3.32ZM1648.29,323.75h-9.18c.89,3.19,2.46,5.97,4.62,8.1,2.38-2.29,3.81-4.97,4.56-8.1Z"/>
      </g>
      <g>
        <path class="cls-4" d="M1260.24,340.22v-22.08h16.6v3.43h-12.42v5.61h11.66v3.4h-11.66v6.21h12.82v3.43h-17.01Z"/>
        <path class="cls-4" d="M1291.82,340.19v-9.26c0-2.54-.94-3.83-3.24-3.83-2.11,0-3.59,1.65-3.67,4.02v9.07h-4.05v-15.87h4.05v2.59c1-1.67,3.13-2.97,5.24-2.97,4.27,0,5.72,2.32,5.72,6.4v9.85h-4.05Z"/>
        <path class="cls-4" d="M1314.66,324.29v13.39c0,6.56-2.21,8.69-8.29,8.69-3.94,0-6.64-1.67-7.15-5.18l4.24.13c.38,1.3,1.65,2.02,3.43,2.02,2.51,0,3.73-1.48,3.73-4.26v-2.27c-1.03,1.84-2.73,2.78-5.18,2.78-3.89,0-6.59-2.75-6.59-7.83s2.43-7.85,6.91-7.85c2.16,0,4,.94,4.86,2.46l-.03-2.08h4.08ZM1310.67,331.01c0-2.29-1.43-3.94-3.72-3.94-2.59,0-3.97,1.84-3.97,4.56,0,3.32,1.62,4.86,3.86,4.86,2.43,0,3.83-1.46,3.83-4.51v-.97Z"/>
        <path class="cls-4" d="M1318.58,317.11h4.05v23.05h-4.05v-23.05Z"/>
        <path class="cls-4" d="M1326.57,317.89h4.05v3.75h-4.05v-3.75ZM1326.57,324.29h4.05v15.87h-4.05v-15.87Z"/>
        <path class="cls-4" d="M1343.88,328.61c-.32-1.21-1.35-1.97-2.97-1.97-1.78,0-2.65.78-2.65,1.84,0,.92.57,1.46,2.81,1.92.94.19,2,.43,3.05.7,3.51.89,4.43,2.4,4.43,4.67,0,2.94-2.08,4.78-6.91,4.78-5.21,0-7.07-1.19-8.04-4.91l4.02-.51c.32,1.73,1.65,2.51,3.73,2.51,2.27,0,3.16-.86,3.16-2.02,0-.86-.51-1.48-3.19-2.08-.92-.19-2-.49-3-.73-2.89-.73-4.24-2.16-4.24-4.16,0-2.78,2.24-4.7,6.59-4.7s6.26,1.24,7.31,4.21l-4.1.46Z"/>
        <path class="cls-4" d="M1362.67,340.16v-9.23c0-2.46-.92-3.86-3.24-3.86s-3.64,1.7-3.67,4.24v8.85h-4.05v-23.08h4.05v9.8c1.03-1.73,3.16-2.94,5.24-2.94,4.05,0,5.7,2.19,5.7,6.37v9.85h-4.02Z"/>
      </g>
      <g>
        <path class="cls-4" d="M134.63,59.69c6.44,3.19,12.95,7.26,18.72,11.4,3.12-5.29,6.65-12.41,9.43-21.37l9.5,2.92c-2.44,6.38-5.63,14.51-11.67,23.94,1.29.95,6.44,5.09,14.24,12.82l-7.33,7.8c-1.9-2.17-5.83-6.71-12.68-12.68-4.82,6.1-13.97,15.19-29.5,22.31l-5.63-7.33c6.04-2.65,18.38-8,28.28-20.62-7.53-5.63-11.73-8.41-18.99-12.41l5.63-6.78Z"/>
        <path class="cls-4" d="M242.06,91.64v8.95h-56.84v-8.95h56.84ZM236.84,55.96v8.95h-46.53v-8.95h46.53Z"/>
        <path class="cls-4" d="M299.84,96.05v8h-48.36v-8h27.54c1.49-8.41,2.17-13.29,2.71-23.06h-24.15v-8h33.37c-.54,14.58-2.58,27.2-3.19,31.06h12.07Z"/>
        <path class="cls-4" d="M367.05,73.53v9.43h-58.19v-9.43h58.19Z"/>
        <path class="cls-4" d="M374.5,73.05h62.53v8.95h-62.53v-8.95Z"/>
        <path class="cls-4" d="M505.87,97.47c-1.36,9.7-2.64,11.6-6.92,11.6h-16.35c-2.24,0-5.77-.2-5.77-4v-7.46h-7.94c-3.12,6.44-7.87,11.26-25.16,12.75l-2.58-7.6c13.84-.07,16.96-3.53,18.38-5.15h-11.67v-24.01h51.48v21.91l6.51,1.97ZM474.13,47.76v4.75h-9.83v2.58h8v9.5h-8v2.44h10.65v4.61h-31.74v-23.87h30.93ZM457.24,52.5h-6.78v2.58h6.78v-2.58ZM465.18,58.47h-14.72v2.71h14.72v-2.71ZM457.24,64.51h-6.78v2.51h6.78v-2.51ZM490.82,78.01h-34.18v2.44h34.18v-2.44ZM490.82,84.04h-34.18v2.58h34.18v-2.58ZM490.82,90.28h-34.18v2.71h34.18v-2.71ZM472.71,59.01c5.97-4.88,8.21-9.9,9.36-13.02l8.48.54c-.47,1.36-.81,2.37-1.49,3.87h16.48v7.39h-20.96c-1.9,2.31-3.39,4.07-6.85,6.99l-5.02-5.77ZM503.57,70.27h-23.47v-7.12h23.47v7.12ZM496.18,102.15c1.49,0,1.49-.48,1.83-4.54h-12.68v3.46c0,1.02.54,1.09,1.15,1.09h9.7Z"/>
        <path class="cls-4" d="M524.72,50.4c-1.02,4.88-2.85,13.9-2.85,29.64,0,14.72,1.49,22.11,2.17,25.5l-9.02,1.02c-.61-3.59-1.9-11.26-1.9-26.38,0-10.45.61-20.08,2.37-30.45l9.22.68ZM568.81,60.64v8.55h-11.6l.07,15.67c5.63,2.58,10.85,6.85,13.16,9.29l-5.63,7.94c-2.65-3.26-4.61-4.82-8-7.33l-.07,1.42c-.41,8.55-7.53,10.44-13.57,10.44-10.65,0-15.26-6.24-15.26-12.55,0-7.12,5.9-12.41,15.19-12.41,2.51,0,4.07.34,5.29.61l-.14-13.09h-18.99v-8.55h18.79l-.07-10.58h9.16v10.58h11.67ZM548.53,90.21c-1.22-.47-2.78-1.15-5.43-1.15-3.46,0-7.39,1.36-7.39,5.15,0,3.12,2.71,4.95,6.92,4.95,5.16,0,5.9-2.78,5.9-5.49v-3.46Z"/>
        <path class="cls-4" d="M591.66,81.13c-2.51,3.19-2.85,5.97-2.85,7.53,0,8.14,12.07,8.14,17.63,8.14,12.34,0,19.47-.75,23.74-1.15l.14,9.22c-3.26.2-10.24.75-20.42.75-10.99,0-30.39,0-30.39-16.01,0-4.75,1.7-8.34,4.68-12.55l7.46,4.07ZM626.59,61.19c-6.31.61-15.74,3.93-22.79,8.41l-6.78-4.61c3.39-2.03,4.95-2.71,8.34-4.07-3.59.14-19.33.41-22.59.61v-8.89c11.19.14,40.76,0,43.82-.07v8.61Z"/>
        <path class="cls-4" d="M696.71,56.3v8.48h-33.64c-.75,4.68-1.15,6.44-2.31,9.9,4.48-2.31,9.36-4,15.46-4,14.24,0,18.92,8.95,18.92,16.89,0,7.19-3.73,12.89-8.82,15.46-5.43,2.71-11.67,3.87-25.37,3.87-4.07,0-6.04-.14-8.48-.2l-1.97-8.68c1.56.14,5.36.54,12.14.54,11.73,0,22.86-.75,22.86-10.78,0-7.32-5.9-8.88-10.58-8.88-4.21,0-11.39,1.02-16.68,6.58-.75,1.49-.88,1.9-1.15,2.65l-9.43-2.65c2.65-5.49,4.82-12.95,6.1-20.69h-13.5v-8.48h14.51c.2-2.51.27-4,.34-7.12l9.83.07c-.27,2.92-.34,3.39-.75,7.05h32.49Z"/>
        <path class="cls-4" d="M719.77,60.51c-1.22,4.54-1.63,7.8-1.83,16.07,6.51-4.41,13.29-6.71,21.09-6.71,15.6,0,18.79,10.65,18.79,16.62,0,15.19-12.95,20.21-31.61,20.21-6.24,0-10.24-.41-12.62-.68l-1.08-8.75c3.12.41,7.8,1.02,13.5,1.02,17.57,0,22.38-5.29,22.38-12.14,0-4.88-3.8-8.27-10.38-8.27-7.8,0-15.87,3.26-20.08,8.34-.07.81-.14,1.08-.2,1.7l-8.89-.34c.2-15.87.34-19.4,1.76-27.94l9.16.88ZM747.24,62c-1.9-.75-10.72-4.34-28.62-5.29l1.56-8.41c13.84.47,21.84,2.03,29.3,4.27l-2.24,9.43Z"/>
        <path class="cls-4" d="M766.36,102.76c6.04-10.65,10.04-25.98,11.46-33.78l-9.77.07v-8.61h11.19c.61-4.34.88-6.92,1.22-11.8l9.5.47c-.47,3.66-.68,5.36-1.63,11.33h6.1c10.04,0,14.79,4.61,14.79,19.06,0,4.95-.68,14.38-3.26,20.21-2.31,5.15-6.58,6.99-12.55,6.99-3.66,0-6.44-.34-7.46-.47l-.54-9.09c1.22.27,4,.81,6.78.81,4.48,0,5.43-2.03,6.44-5.7.95-3.53,1.76-8.95,1.76-13.77,0-7.73-1.76-9.7-8.48-9.63l-5.15.07c-1.9,10.58-5.97,26.86-11.67,37.91l-8.75-4.07ZM817.63,86.28c-.34-9.83-2.71-19.67-8.61-27.54l7.67-3.8c6.92,8.27,9.63,18.99,10.38,29.71l-9.43,1.63Z"/>
        <path class="cls-4" d="M847.06,60.51c-1.22,4.54-1.63,7.8-1.83,16.07,6.51-4.41,13.29-6.71,21.09-6.71,15.6,0,18.79,10.65,18.79,16.62,0,15.19-12.95,20.21-31.61,20.21-6.24,0-10.24-.41-12.62-.68l-1.08-8.75c3.12.41,7.8,1.02,13.5,1.02,17.57,0,22.38-5.29,22.38-12.14,0-4.88-3.8-8.27-10.38-8.27-7.8,0-15.87,3.26-20.08,8.34-.07.81-.14,1.08-.2,1.7l-8.89-.34c.2-15.87.34-19.4,1.76-27.94l9.16.88ZM874.53,62c-1.9-.75-10.72-4.34-28.62-5.29l1.56-8.41c13.84.47,21.84,2.03,29.3,4.27l-2.24,9.43Z"/>
      </g>
      <rect class="cls-4" x="1192.71" y="54.44" width="250.99" height="250.99"/>
      <rect class="cls-4" x="1503.64" y="54.44" width="250.99" height="250.99"/>
      <rect class="cls-4" x="1809.83" y="54.44" width="250.99" height="250.99"/>
      <g>
        <rect class="cls-4" x="958.24" y="158.83" width="108.28" height="49.5"/>
        <polygon class="cls-4" points="1116.02 183.58 1030.95 248.55 1030.95 118.61 1116.02 183.58"/>
      </g>
      <g>
        <path class="cls-4" d="M127.28,177.8c0-16.43,10.96-25.19,24.8-25.19,5.77,0,9.67,1.21,13.78,3.58l-.13,11.19h-3.46l-2.95-11.44c-1.79-.64-3.65-.96-5.77-.96-9.55,0-16.72,7.35-16.72,22.5s7.18,22.44,16.79,22.44c2.24,0,4.23-.32,6.21-1.15l2.88-11.19h3.52l.13,11.06c-4.04,2.37-8.59,3.71-14.29,3.71-14.16,0-24.8-8.31-24.8-24.55Z"/>
        <path class="cls-4" d="M171.36,201.14v-1.92l4.87-.45.13-12.66v-32.8l-5-.32v-1.73l12.94-2.49.96.58-.26,10.17v26.6c0,4.03.06,8.63.19,12.72l4.81.38v1.92h-18.64Z"/>
        <path class="cls-4" d="M194.43,201.14v-1.92l4.61-.45.13-12.66v-4.67c0-4.28-.06-7.03-.19-10.1l-5.06-.45v-1.53l13.26-3.39.83.51-.26,9.85v9.78c0,3.52.06,9.01.13,12.72l4.29.38v1.92h-17.75ZM198.27,154.53c0-2.62,2.18-4.6,4.87-4.6s4.87,1.98,4.87,4.6c0,2.81-2.18,4.73-4.87,4.73s-4.87-1.92-4.87-4.73Z"/>
        <path class="cls-4" d="M216.85,184.52c0-12.15,8.52-18.67,18.52-18.67,6.6,0,11.73,4.09,12.75,9.59-.58,2.05-1.86,2.94-3.78,2.94-2.37,0-4.17-1.28-4.42-5.18l-.96-4.86c-.83-.26-1.67-.32-2.56-.32-6.02,0-10.44,5.69-10.44,15.34s4.61,14.71,11.72,14.71c3.78,0,6.86-1.66,9.29-4.67l1.15.83c-3.08,5.37-7.24,7.93-14.1,7.93-9.61,0-17.17-6.33-17.17-17.65Z"/>
        <path class="cls-4" d="M272.53,166.87h16.34v1.92l-6.28.58-8.07,7.54,11.73,21.93,4.42.38v1.92h-12.49l-9.67-18.67-3.52,3.32c0,3.71.06,9.4.13,13.04l4.42.38v1.92h-18v-1.92l4.68-.45.13-12.66v-32.8l-5-.32v-1.73l12.94-2.49.96.58-.26,10.17v23.59l6.21-6.14,7.62-7.42-6.28-.77v-1.92Z"/>
        <path class="cls-4" d="M331.47,201.14v-1.92l4.49-.45c.06-3.58.13-8.95.13-12.66v-8.63c0-5.37-1.99-7.29-5.13-7.29-2.31,0-5.19,1.28-8.26,4.22v11.7c0,3.58.06,9.08.13,12.72l4.04.38v1.92h-17.56v-1.92l4.61-.45.13-12.66v-32.8l-5-.32v-1.73l12.81-2.49.83.58-.19,10.17v12.91c3.97-4.6,7.62-6.59,12.3-6.59,6.02,0,9.93,3.64,9.93,12.34v7.93l.13,12.72,4.23.38v1.92h-17.62Z"/>
        <path class="cls-4" d="M353.44,183.94c0-11.51,8.14-18.09,17.24-18.09s14.48,6.2,14.48,14.13c0,1.6-.13,2.75-.38,3.9h-22.23c.26,10.04,5.06,14.19,11.47,14.19,4.55,0,7.56-1.79,9.8-4.79l1.15.83c-2.69,5.18-7.5,8.06-13.84,8.06-10.38,0-17.68-6.39-17.68-18.22ZM373.5,181.64c2.75,0,3.52-1.34,3.52-4.79,0-5.63-2.56-8.82-6.66-8.82s-7.5,4.22-7.82,13.62h10.96Z"/>
        <path class="cls-4" d="M389.77,201.14v-1.92l4.68-.45c.06-3.71.13-9.14.13-12.66v-4.8c0-4.28-.06-6.71-.26-9.85l-5-.45v-1.53l12.56-3.52.83.51.51,8.89c2.05-6.07,6.34-9.53,10.32-9.53,2.82,0,5.19,1.15,5.83,4.28-.13,2.75-1.41,4.67-4.29,4.67-2.11,0-3.52-1.28-5.13-3.32l-.51-.58c-2.82,1.92-4.74,4.79-6.21,9.59v5.63l.13,12.53,5.96.58v1.92h-19.54Z"/>
        <path class="cls-4" d="M420.97,183.94c0-11.51,8.14-18.09,17.24-18.09s14.48,6.2,14.48,14.13c0,1.6-.13,2.75-.38,3.9h-22.23c.26,10.04,5.06,14.19,11.47,14.19,4.55,0,7.56-1.79,9.8-4.79l1.15.83c-2.69,5.18-7.5,8.06-13.84,8.06-10.38,0-17.68-6.39-17.68-18.22ZM441.03,181.64c2.75,0,3.52-1.34,3.52-4.79,0-5.63-2.56-8.82-6.66-8.82s-7.5,4.22-7.82,13.62h10.96Z"/>
        <path class="cls-4" d="M473.25,201.14v-1.92l4.87-.45c.06-4.22.13-8.44.13-12.66v-16.69h-5.38v-2.05l5.51-.58c.71-7.61,2.82-11.83,5.96-14.58,3.27-3,6.86-4.16,10.57-4.16s6.86,1.21,7.62,4.28c-.06,2.17-1.54,3.77-4.16,3.77-2.18,0-3.97-1.15-5.64-4.16l-1.09-1.73c-1.03.58-1.92,1.41-2.5,2.24-2.05,3.2-2.56,7.48-2.31,14.39h8.84v2.56h-8.78v16.69c0,4.16.06,8.38.19,12.59l6.09.51v1.92h-19.93Z"/>
        <path class="cls-4" d="M498.43,183.88c0-11.38,7.95-18.03,17.36-18.03s17.43,6.59,17.43,18.03-7.3,18.29-17.43,18.29-17.36-6.9-17.36-18.29ZM523.99,184.01c0-10.81-3.01-15.98-8.2-15.98s-8.2,5.18-8.2,15.98,3.01,16.05,8.2,16.05,8.2-5.31,8.2-16.05Z"/>
        <path class="cls-4" d="M538.02,201.14v-1.92l4.68-.45c.06-3.71.13-9.14.13-12.66v-4.8c0-4.28-.06-6.71-.26-9.85l-5-.45v-1.53l12.56-3.52.83.51.51,8.89c2.05-6.07,6.34-9.53,10.32-9.53,2.82,0,5.19,1.15,5.83,4.28-.13,2.75-1.41,4.67-4.29,4.67-2.11,0-3.52-1.28-5.13-3.32l-.51-.58c-2.82,1.92-4.74,4.79-6.21,9.59v5.63l.13,12.53,5.96.58v1.92h-19.54Z"/>
        <path class="cls-4" d="M629.32,201.14v-1.92l4.29-.45.13-12.66v-8.12c0-5.95-1.67-7.74-4.93-7.74-2.56,0-5.25,1.34-8.2,4.28.19,1.09.26,2.24.26,3.52v8.06c0,3.71.06,9.08.19,12.72l4.1.38v1.92h-17.36v-1.92l4.55-.45c.06-3.64.13-8.95.13-12.66v-8.12c0-5.63-1.67-7.74-4.87-7.74-2.5,0-5.32,1.53-8.07,4.35v11.51l.13,12.72,4.1.38v1.92h-17.62v-1.92l4.61-.45c.06-3.64.13-9.14.13-12.66v-4.86c0-4.22,0-6.65-.26-9.78l-5-.45v-1.53l12.56-3.52.83.51.45,5.82c3.4-4.16,7.18-6.46,11.72-6.46s7.75,2.11,9.03,6.71c3.65-4.73,7.5-6.71,12.05-6.71,6.73,0,10,3.84,10,12.47v7.8l.13,12.72,4.17.38v1.92h-17.24Z"/>
        <path class="cls-4" d="M650.97,183.94c0-11.51,8.14-18.09,17.24-18.09s14.48,6.2,14.48,14.13c0,1.6-.13,2.75-.38,3.9h-22.23c.26,10.04,5.06,14.19,11.47,14.19,4.55,0,7.56-1.79,9.8-4.79l1.15.83c-2.69,5.18-7.5,8.06-13.84,8.06-10.38,0-17.68-6.39-17.68-18.22ZM671.03,181.64c2.75,0,3.52-1.34,3.52-4.79,0-5.63-2.56-8.82-6.66-8.82s-7.5,4.22-7.82,13.62h10.96Z"/>
        <path class="cls-4" d="M709.47,201.14v-1.92l4.49-.45.13-12.66v-8.63c0-5.37-1.67-7.29-4.93-7.29-2.18,0-5.19,1.28-8.39,4.28v11.64l.13,12.72,4.1.38v1.92h-17.62v-1.92l4.61-.45c.06-3.64.13-9.14.13-12.66v-4.8c0-4.22-.06-6.71-.26-9.85l-5-.45v-1.53l12.56-3.52.83.51.38,5.88c4.29-4.86,8.07-6.52,12.3-6.52,5.89,0,9.74,3.77,9.74,12.21v8.06c0,3.71.06,9.08.19,12.72l4.23.38v1.92h-17.62Z"/>
        <path class="cls-4" d="M757.07,195.64c-3.08,3.9-7.05,6.52-11.98,6.52-6.34,0-10.12-3.39-10.06-13.04l.19-18.73-4.74-.83v-1.66l12.81-1.6.77.64-.32,9.33v13.49c0,5.69,2.05,7.54,5.57,7.54,2.82,0,5.45-1.47,7.69-3.84l.26-23.14-4.61-.7v-1.53l12.62-1.79.71.64-.26,9.33v22.63l4.36.45v1.85l-12.69.7-.32-6.27Z"/>
        <path class="cls-4" d="M790.32,201.14v-1.92l4.87-.45.13-12.66v-32.8l-5-.32v-1.73l12.94-2.49.96.58-.26,10.17v26.6c0,4.03.06,8.63.19,12.72l4.81.38v1.92h-18.64Z"/>
        <path class="cls-4" d="M813.39,201.14v-1.92l4.61-.45.13-12.66v-4.67c0-4.28-.06-7.03-.19-10.1l-5.06-.45v-1.53l13.26-3.39.83.51-.26,9.85v9.78c0,3.52.06,9.01.13,12.72l4.29.38v1.92h-17.75ZM817.23,154.53c0-2.62,2.18-4.6,4.87-4.6s4.87,1.98,4.87,4.6c0,2.81-2.18,4.73-4.87,4.73s-4.87-1.92-4.87-4.73Z"/>
        <path class="cls-4" d="M836.13,199.22l.32-8.31h3.65l1.73,7.86c1.73.7,3.46,1.09,5.7,1.09,5.13,0,7.88-1.98,7.88-5.56,0-2.81-1.35-4.73-6.47-6.27l-3.59-1.21c-5.57-1.73-8.97-4.92-8.97-10.1,0-6.27,4.93-10.87,13.78-10.87,4.16,0,7.24,1.02,10.83,2.88l-.38,7.61h-3.27l-1.99-7.03c-1.6-.77-3.08-1.15-5-1.15-4.29,0-6.86,2.11-6.86,5.37,0,2.56,1.47,4.41,6.41,5.95l3.59,1.15c6.66,2.11,9.42,5.43,9.42,10.42,0,6.78-5.38,11.12-14.8,11.12-4.68,0-8.33-1.02-11.98-2.94Z"/>
        <path class="cls-4" d="M871.62,192.7c0-2.37.06-4.03.06-6.58v-16.69h-5.57v-2.05l6.02-.58,2.75-10.17h5.57l-.13,10.23h8.33v2.56h-8.33v23.78c0,3.64,1.6,5.18,4.23,5.18,1.73,0,2.88-.58,4.61-1.92l.96,1.09c-1.86,3-4.81,4.6-9.23,4.6-6.15,0-9.29-2.88-9.29-9.46Z"/>
      </g>
      <g>
        <path class="cls-4" d="M128.29,251.74h7.17v-12.51h6.82v12.51h5.97v6.61h-5.97v11.74c1.9-.49,3.94-1.05,5.97-1.69-.07,2.46,0,5.06.14,7.17-2.11.63-4.15,1.19-6.11,1.83v19.19c0,5.27-1.9,7.45-6.68,7.73-2.11.14-4.36.28-6.54.28-.35-2.53-.84-5.34-1.19-7.1,1.19.07,2.74.07,4.71.07,2.18,0,2.88-.84,2.88-2.95v-15.18l-7.45,2.32-.7-7.8,8.15-1.97v-13.63h-7.17v-6.61ZM150.08,266.85h10.61c1.27-3.16,2.53-6.4,3.66-9.77l7.52,1.48c-1.19,2.88-2.39,5.62-3.58,8.29h25.37v6.68h-7.1c-2.11,6.82-4.71,12.16-8.57,16.59,5.13,2.67,10.4,5.55,15.53,8.36l-4.29,6.26c-5.69-3.44-11.17-6.68-16.66-9.77-5.55,4.08-13,7.31-23.26,10.4-1.05-2.18-2.39-4.64-3.58-6.75,8.64-2.25,15.11-4.57,19.96-7.45l-13.56-7.31c1.9-3.09,3.8-6.54,5.55-10.33h-7.59v-6.68ZM151.06,247.38h17.36c-.91-2.46-1.97-5.13-2.81-7.17l7.66-1.12c1.12,2.81,2.18,5.69,3.09,8.29h16.17v13.28h-6.89v-6.75h-27.83v6.75h-6.75v-13.28ZM171.58,286.74c3.58-3.51,5.9-7.8,7.66-13.21h-14.06c-1.26,2.67-2.6,5.34-3.94,7.94,3.3,1.69,6.75,3.37,10.33,5.27Z"/>
        <path class="cls-4" d="M197.52,266.64h66.77v8.08h-66.77v-8.08Z"/>
        <path class="cls-4" d="M268.59,243.52h65.22v7.45h-31.28v16.52l4.43-5.41c8.5,5.13,16.02,9.77,23.9,14.83l-5.27,6.96c-8.29-5.83-15.32-10.54-23.05-15.6v36.41h-8.36v-53.7h-25.58v-7.45Z"/>
        <path class="cls-4" d="M338.31,294.96l5.41-.91v-42.45h7.03v41.12l7.59-1.41v-51.31h7.1v19.19h9.21v6.82h-9.21v23.97c2.95-.56,5.9-1.05,8.64-1.62,0,2.46.07,5.27.21,7.38-11.25,2.18-23.4,4.5-34.86,6.82l-1.12-7.59ZM377.46,293.49v-54.19h7.17v23.54c4.78-3.58,9.7-7.8,13.92-12.23l5.62,5.06c-5.9,5.83-12.37,11.31-19.54,16.38v19.96c0,3.16,1.05,4.22,4.01,4.22h3.79c2.88,0,4.01-1.19,4.5-4.15.35-2.46.77-6.61,1.05-10.4,2.11.7,5.34,1.69,7.03,2.18-.49,5.06-1.12,9.28-1.9,12.3-1.19,4.57-4.15,6.82-9.7,6.82h-6.89c-6.4,0-9.07-2.74-9.07-9.49Z"/>
        <path class="cls-4" d="M448.45,302.98c-5.9-.21-10.19-1.48-13.7-4.08-3.3,2.39-7.45,4.43-12.58,6.4-.84-1.55-1.9-3.44-3.02-5.2,4.71-1.55,8.43-3.3,11.46-5.27-1.26-1.69-2.46-3.58-3.58-5.76-.98,1.19-2.04,2.32-3.16,3.51-1.19-1.48-2.46-2.88-3.72-4.15-1.12,5.69-3.23,10.89-6.68,16.94-1.69-1.69-3.58-3.44-5.34-4.99,5.06-8.71,6.54-15.11,6.54-28.46v-20.59h21.58v-12.37h7.03v4.01h27.41v4.78h-27.41v3.58h31.13l-1.27,10.96c-2.11-.35-4.36-.63-6.54-.84l.77-4.71h-45.89v15.6c0,6.04-.35,11.03-1.19,15.6,4.08-4.29,7.31-9.63,9.49-15.18l6.33.98c-.56,1.27-1.12,2.53-1.69,3.65h11.53v5.48c-1.69,4.92-3.73,8.79-6.68,12.02,2.81,1.69,6.04,2.46,9.98,2.6,6.11.21,17.22.14,25.86,0-.84,2.39-1.34,4.22-1.76,5.76-9.7,0-17.99-.07-24.88-.28ZM423.92,262.14l12.37-.63v-3.65h6.82v3.3l17.57-.91.28,4.36-17.85.98c0,2.53,1.05,3.37,4.78,3.37h11.39c3.02,0,4.22-.7,4.71-2.39.28-1.12.63-2.74.84-4.29,2.25.56,4.15.98,6.18,1.33-.49,2.25-.84,3.8-1.33,5.27-1.05,3.09-3.3,4.5-8.64,4.5h-16.59c-5.97,0-8.15-2.11-8.15-7.03v-.35l-11.95.63-.42-4.5ZM431.51,282.66l-.84,1.33c1.34,2.88,2.74,5.2,4.29,7.1,2.25-2.39,3.87-5.2,5.06-8.43h-8.5ZM445.57,292.64c3.94-3.16,5.2-5.83,5.2-10.05v-6.19h16.02v11.88c0,1.34.42,1.83,1.41,1.83h.56c.98,0,1.55-.56,1.76-2.04l.42-5.06c1.2.35,2.6.77,3.8,1.05-.21,2.46-.42,4.22-.7,5.97-.49,3.23-2.25,4.71-5.13,4.71h-2.67c-3.3,0-4.85-1.76-4.85-5.34v-8.15h-5.2v1.83c0,5.34-1.48,8.93-6.4,13.21-1.2-1.12-2.74-2.46-4.22-3.65Z"/>
        <path class="cls-4" d="M536.45,266.29v25.44h-48.57v-25.16c-2.04.84-4.15,1.62-6.4,2.46-.77-2.04-1.69-4.36-2.67-6.61,11.03-3.09,18.98-6.82,25.23-11.39h-23.26v-5.97h27.69v-6.26h7.1v6.26h27.83v5.97h-23.19c6.61,4.92,14.55,8.36,25.02,10.75l-2.6,6.68c-2.25-.7-4.29-1.41-6.18-2.18ZM479.52,296.65h65.08v6.04h-65.08v-6.04ZM508.48,254.34c-4.71,4.08-9.91,7.38-16.52,10.4h40.62c-7.03-2.95-12.23-6.18-17.01-10.54v8.57h-7.1v-8.43ZM495.2,275.78h33.95v-5.48h-33.95v5.48ZM495.2,286.11h33.95v-5.48h-33.95v5.48Z"/>
        <path class="cls-4" d="M554.66,252.09h20.8c.56-1.48,1.05-2.95,1.55-4.5-7.31.14-14.9.28-23.05.35l-.77-5.55c20.87-.14,40.41-.56,57.35-1.41l.84,5.62c-8.79.35-17.57.63-26.71.84l-1.69,4.64h27.48v4.99h-29.52l-2.32,4.64h36.83v5.48h-40.13c-.98,1.48-2.04,2.88-3.16,4.29h36.12v33.74h-7.03v-2.6h-32.19v2.6h-7.03v-23.19c-3.02,2.67-6.4,5.34-10.19,8.08-.77-1.97-1.97-4.36-3.02-6.61,7.87-5.13,13.85-10.33,18.34-16.31h-17.22v-5.48h20.94c.84-1.48,1.69-3.02,2.39-4.64h-18.62v-4.99ZM569.07,280.56h32.19v-4.36h-32.19v4.36ZM569.07,289.2h32.19v-4.36h-32.19v4.36ZM569.07,297.92h32.19v-4.43h-32.19v4.43Z"/>
        <path class="cls-4" d="M620.38,278.8h28.6v-4.08h7.24v4.08h28.96v6.11h-24.46c6.68,5.62,13.85,8.86,25.23,11.67-1.34,2.32-2.53,4.43-3.66,6.61-12.3-4.15-19.61-8.15-26.07-14.83v16.8h-7.24v-16.94c-6.25,6.68-13.42,10.89-25.86,15.74-1.05-1.97-2.46-4.22-3.87-6.4,11.17-3.44,18.62-7.24,25.09-12.65h-23.97v-6.11ZM619.89,244.36h17.78v-5.48h7.1v5.48h15.81v-5.48h7.03v5.48h17.85v5.97h-17.85v3.23h-7.03v-3.23h-15.81v3.65h-7.1v-3.65h-17.78v-5.97ZM622.84,257.01c20.45-.07,38.3-.56,56.58-1.48l1.55,5.9c-17.15.77-37.53,1.48-56.65,1.69l-1.48-6.11ZM626.64,267.55l6.11-3.09c2.46,3.16,4.29,5.62,6.47,8.71l-6.47,3.3c-1.97-3.23-3.79-5.83-6.11-8.93ZM646.18,265.37l6.33-2.46c1.97,3.02,3.51,5.55,5.13,8.36l-6.54,2.67c-1.41-2.67-2.95-5.48-4.92-8.57ZM662.9,272.96c3.72-3.65,6.25-6.54,9.07-9.98l6.11,3.58c-3.09,3.58-5.9,6.68-9.49,10.33l-5.69-3.94Z"/>
        <path class="cls-4" d="M697.21,261.02h51.59v25.79h-22.28v4.64h29.31v5.55h-29.31v8.08h-7.1v-8.08h-29.38v-5.55h29.38v-4.64h-22.21v-25.79ZM694.11,241.83h25.72v15.32h-25.72v-15.32ZM700.58,252.23h12.79v-5.34h-12.79v5.34ZM704.24,271.56h15.18v-5.27h-15.18v5.27ZM704.24,281.61h15.18v-5.34h-15.18v5.34ZM725.95,241.83h26v15.32h-26v-15.32ZM726.52,266.29v5.27h15.25v-5.27h-15.25ZM726.52,281.61h15.25v-5.34h-15.25v5.34ZM732.42,252.23h13v-5.34h-13v5.34Z"/>
        <path class="cls-4" d="M762.15,241.9h35.77v6.96h-16.87c-.77,3.09-1.62,5.97-2.67,8.71h16.87v6.61c-3.44,17.57-10.54,29.1-28.11,41.11-1.55-1.97-3.44-4.22-5.06-5.97,7.87-5.2,13.42-10.12,17.5-15.67-3.79-3.37-7.38-6.4-10.54-9-1.69,2.25-3.51,4.43-5.55,6.61-1.27-2.11-2.46-3.94-3.87-6.04,7.45-9,11.32-16.38,13.71-26.36h-11.17v-6.96ZM775.37,264.53c-1.05,2.11-2.25,4.08-3.51,6.04l1.05-1.19c3.73,2.74,7.24,5.48,10.47,8.01,1.9-3.87,3.37-8.08,4.57-12.86h-12.58ZM800.95,247.45h6.96v40.48h-6.96v-40.48ZM801.44,296.58c3.16.14,6.33.21,9.35.21,3.94,0,4.99-1.05,4.99-4.78v-52.5h7.24v54.33c0,7.17-2.53,9.91-9.07,10.19-3.58.14-7.66.21-11.03.21-.35-2.46-.91-5.06-1.48-7.66Z"/>
        <path class="cls-4" d="M833.08,245.91h26.64v-6.82h7.45v6.82h26.71v5.83h-26.71v5.69h23.83v5.76h-23.83v5.83h29.03v5.83h-28.82c1.83,3.87,3.87,6.96,6.47,9.56,4.36-2.53,10.33-6.19,13.56-8.71l4.57,5.2c-3.66,2.25-9.07,5.2-13.21,7.52,4.57,3.02,10.33,5.06,17.92,6.75-.98,1.76-2.74,4.64-4.01,7.03-16.94-5.48-25.09-11.6-30.71-23.76-2.32,2.32-4.85,4.5-7.59,6.54v11.53c3.51-.98,11.17-3.58,15.74-4.99-.21,2.32-.35,4.99-.42,7.24-5.76,1.41-13.28,3.8-16.66,4.85-1.55.42-3.02.98-4.57,1.76l-3.3-5.27c1.69-1.27,2.39-2.81,2.39-4.5v-6.18c-4.29,2.53-9.14,4.85-14.83,7.24-.7-2.04-1.69-4.57-2.74-6.96,11.6-4.01,20.03-8.93,26.57-14.83h-25.51v-5.83h28.67v-5.83h-23.83v-5.76h23.83v-5.69h-26.64v-5.83Z"/>
      </g>
      <g>
        <g class="cls-6">
          <rect class="cls-4" x="1824.98" y="71.25" width="220.21" height="220.21"/>
        </g>
        <path d="M1846.29,117.43v24.86h49.72v-49.72h-49.72v24.86ZM1888.91,117.43v17.76h-35.52v-35.52h35.52v17.76Z"/>
        <path d="M1860.5,117.43v10.66h21.31v-21.31h-21.31v10.66Z"/>
        <path d="M1903.12,96.12v3.55h7.1v28.41h14.21v7.1h-7.1v21.31h-14.21v14.21h7.1v-7.1h7.1v7.1h14.21v-14.21h7.1v-7.1h7.1v7.1h7.1v14.21h7.1v7.1h7.1v-14.21h-7.1v-7.1h7.1v-7.1h-21.31v-7.1h7.1v-21.31h14.21v-7.1h-7.1v-7.1h7.1v-7.1h-7.1v7.1h-7.1v-14.21h-7.1v14.21h-7.1v7.1h-7.1v7.1h7.1v7.1h7.1v14.21h-7.1v-7.1h-7.1v-7.1h-7.1v-7.1h-7.1v-7.1h7.1v-21.31h-7.1v7.1h-7.1v-7.1h-7.1v3.55ZM1952.84,113.88v7.1h-7.1v-14.21h7.1v7.1ZM1931.53,138.74v3.55h7.1v7.1h-14.21v-14.21h7.1v3.55Z"/>
        <path d="M1974.15,117.43v24.86h49.72v-49.72h-49.72v24.86ZM2016.78,117.43v17.76h-35.52v-35.52h35.52v17.76Z"/>
        <path d="M1988.36,117.43v10.66h21.31v-21.31h-21.31v10.66Z"/>
        <path d="M1903.12,142.29v7.1h7.1v-14.21h-7.1v7.1Z"/>
        <path d="M1959.95,138.74v3.55h7.1v-7.1h-7.1v3.55Z"/>
        <path d="M1846.29,181.36v31.97h7.1v-14.21h7.1v14.21h7.1v-14.21h7.1v7.1h7.1v7.1h21.31v7.1h7.1v-7.1h-7.1v-7.1h7.1v-7.1h14.21v-7.1h28.41v7.1h7.1v-7.1h7.1v14.21h-35.52v7.1h14.21v14.21h-7.1v7.1h-7.1v-14.21h-7.1v-7.1h-7.1v14.21h-7.1v7.1h-7.1v14.21h7.1v7.1h-7.1v14.21h7.1v-7.1h14.21v7.1h14.21v-14.21h7.1v-7.1h7.1v-7.1h14.21v7.1h-7.1v7.1h7.1v7.1h-7.1v7.1h7.1v-7.1h7.1v7.1h7.1v-7.1h14.21v7.1h7.1v-7.1h14.21v7.1h7.1v-21.31h-35.52v7.1h-14.21v-7.1h7.1v-7.1h14.21v-35.52h7.1v14.21h14.21v21.31h7.1v-21.31h-7.1v-14.21h7.1v-14.21h-7.1v-7.1h7.1v-21.31h-7.1v-7.1h7.1v-7.1h-7.1v7.1h-35.52v-7.1h-7.1v7.1h7.1v14.21h7.1v7.1h-14.21v7.1h14.21v14.21h-7.1v-7.1h-14.21v-7.1h-28.41v-7.1h-7.1v7.1h-7.1v-7.1h-49.72v-7.1h7.1v-7.1h-7.1v-7.1h7.1v-7.1h-14.21v14.21h-7.1v-14.21h-14.21v31.97ZM1874.71,167.15v3.55h-7.1v7.1h7.1v14.21h14.21v-7.1h14.21v7.1h-14.21v7.1h14.21v7.1h-21.31v-7.1h-7.1v-7.1h-14.21v-14.21h-7.1v-7.1h14.21v-7.1h7.1v3.55ZM1995.46,167.15v3.55h-7.1v-7.1h7.1v3.55ZM2016.78,167.15v3.55h-14.21v-7.1h14.21v3.55ZM2016.78,181.36v3.55h-7.1v7.1h-14.21v-7.1h-7.1v-7.1h28.41v3.55ZM1924.43,188.46v3.55h-14.21v-7.1h14.21v3.55ZM1981.26,202.67v3.55h-7.1v-7.1h7.1v3.55ZM1995.46,202.67v3.55h-7.1v-7.1h7.1v3.55ZM2016.78,202.67v3.55h-7.1v-7.1h7.1v3.55ZM1959.95,220.43v7.1h-7.1v14.21h-14.21v14.21h-7.1v7.1h-7.1v-7.1h-7.1v-7.1h-7.1v-7.1h7.1v7.1h7.1v7.1h7.1v-14.21h7.1v-7.1h7.1v-7.1h7.1v-14.21h7.1v7.1ZM1988.36,223.98v10.66h-21.31v-21.31h21.31v10.66ZM1924.43,231.08v3.55h-7.1v-7.1h7.1v3.55ZM2002.57,259.5v3.55h-7.1v-7.1h7.1v3.55Z"/>
        <path d="M1974.15,223.98v3.55h7.1v-7.1h-7.1v3.55Z"/>
        <path d="M1888.91,152.94v3.55h7.1v-7.1h-7.1v3.55Z"/>
        <path d="M1888.91,167.15v3.55h7.1v-7.1h-7.1v3.55Z"/>
        <path d="M1846.29,245.29v24.86h49.72v-49.72h-49.72v24.86ZM1888.91,245.29v17.76h-35.52v-35.52h35.52v17.76Z"/>
        <path d="M1860.5,245.29v10.66h21.31v-21.31h-21.31v10.66Z"/>
      </g>
      <g>
        <g class="cls-2">
          <rect class="cls-4" x="1517.44" y="68.88" width="225.39" height="225.39"/>
        </g>
        <path d="M1539.15,112.5v21.91h43.83v-43.83h-43.83v21.91ZM1576.71,112.5v15.65h-31.3v-31.3h31.3v15.65Z"/>
        <path d="M1551.67,112.5v9.39h18.78v-18.78h-18.78v9.39Z"/>
        <path d="M1595.49,93.72v3.13h-6.26v6.26h6.26v6.26h-6.26v6.26h12.52v18.78h6.26v-18.78h6.26v6.26h12.52v18.78h-6.26v-12.52h-6.26v18.78h6.26v6.26h-12.52v6.26h-6.26v-12.52h6.26v-6.26h-31.3v6.26h-6.26v-6.26h-31.3v18.78h6.26v6.26h-6.26v12.52h6.26v-6.26h12.52v6.26h12.52v12.52h6.26v6.26h12.52v6.26h6.26v6.26h-12.52v-6.26h-12.52v18.78h18.78v12.52h6.26v6.26h-6.26v31.3h25.04v-12.52h6.26v-6.26h-12.52v-6.26h-6.26v-18.78h-6.26v-6.26h-6.26v-6.26h18.78v6.26h6.26v6.26h6.26v6.26h-6.26v12.52h6.26v-6.26h6.26v6.26h12.52v6.26h-6.26v6.26h-6.26v6.26h6.26v-6.26h6.26v6.26h6.26v6.26h6.26v-6.26h-6.26v-6.26h-6.26v-6.26h6.26v-6.26h6.26v6.26h6.26v6.26h6.26v6.26h12.52v-6.26h6.26v6.26h6.26v-6.26h6.26v6.26h6.26v6.26h6.26v-6.26h6.26v-12.52h6.26v-6.26h-12.52v-6.26h-6.26v6.26h-6.26v-12.52h12.52v-6.26h12.52v-12.52h-6.26v-6.26h-6.26v-18.78h6.26v-6.26h-6.26v-6.26h-12.52v-6.26h12.52v-6.26h6.26v-6.26h-6.26v6.26h-6.26v-6.26h-6.26v-12.52h6.26v-6.26h-6.26v6.26h-6.26v-6.26h-6.26v6.26h-6.26v-6.26h-6.26v6.26h-18.78v-6.26h-6.26v-12.52h6.26v6.26h6.26v6.26h6.26v-6.26h6.26v-12.52h-6.26v-6.26h6.26v-6.26h-6.26v-6.26h6.26v-6.26h-6.26v-6.26h-25.04v6.26h-6.26v-6.26h-6.26v12.52h6.26v6.26h-12.52v6.26h-6.26v-12.52h6.26v-6.26h-12.52v6.26h-6.26v-12.52h-6.26v3.13ZM1645.58,99.98v3.13h6.26v-6.26h12.52v6.26h-12.52v6.26h12.52v6.26h-12.52v6.26h-6.26v6.26h-6.26v12.52h6.26v18.78h6.26v-6.26h25.04v6.26h-12.52v12.52h-12.52v-6.26h-6.26v6.26h-6.26v6.26h-12.52v-6.26h-12.52v6.26h6.26v6.26h-6.26v12.52h6.26v-6.26h6.26v-6.26h18.78v-6.26h18.78v12.52h6.26v-12.52h12.52v12.52h12.52v-6.26h-6.26v-6.26h6.26v6.26h12.52v6.26h-12.52v6.26h6.26v12.52h6.26v6.26h-6.26v6.26h-6.26v-6.26h-6.26v-12.52h6.26v-6.26h-18.78v6.26h-6.26v6.26h12.52v6.26h-18.78v-6.26h-6.26v12.52h6.26v6.26h-6.26v12.52h6.26v6.26h31.3v6.26h-31.3v-6.26h-12.52v-6.26h-6.26v-12.52h-12.52v-6.26h-18.78v-12.52h6.26v-6.26h-12.52v6.26h-6.26v-6.26h6.26v-6.26h-6.26v-12.52h-12.52v-12.52h6.26v6.26h6.26v6.26h6.26v-12.52h-6.26v-6.26h6.26v6.26h6.26v-12.52h6.26v-6.26h6.26v-6.26h6.26v-18.78h6.26v-6.26h-12.52v-6.26h6.26v-6.26h6.26v-12.52h6.26v3.13ZM1608.02,112.5v3.13h-6.26v-6.26h6.26v3.13ZM1664.36,128.15v6.26h-6.26v-12.52h6.26v6.26ZM1551.67,150.06v3.13h6.26v-6.26h12.52v6.26h6.26v-6.26h6.26v6.26h6.26v6.26h-6.26v6.26h-6.26v6.26h6.26v6.26h-12.52v-6.26h-12.52v-12.52h-12.52v-12.52h6.26v3.13ZM1689.41,162.59v3.13h6.26v6.26h-25.04v-6.26h12.52v-6.26h6.26v3.13ZM1582.97,187.63v3.13h-6.26v-6.26h6.26v3.13ZM1595.49,193.89v3.13h-6.26v-6.26h6.26v3.13ZM1582.97,212.67v3.13h-6.26v-6.26h6.26v3.13ZM1689.41,231.46v9.39h-18.78v-18.78h18.78v9.39ZM1633.06,237.72v3.13h-6.26v-6.26h6.26v3.13ZM1601.75,256.5v3.13h6.26v6.26h-6.26v-6.26h-6.26v-6.26h6.26v3.13ZM1708.19,262.76v3.13h-6.26v-6.26h6.26v3.13Z"/>
        <path d="M1645.58,112.5v3.13h-6.26v6.26h6.26v-6.26h6.26v-6.26h-6.26v3.13Z"/>
        <path d="M1626.8,156.33v3.13h6.26v6.26h6.26v-12.52h-12.52v3.13Z"/>
        <path d="M1626.8,193.89v3.13h12.52v6.26h-6.26v6.26h-6.26v6.26h6.26v-6.26h6.26v6.26h6.26v12.52h12.52v-6.26h-6.26v-6.26h-6.26v-6.26h6.26v-6.26h18.78v-6.26h-6.26v-6.26h-18.78v6.26h-6.26v-6.26h-12.52v3.13Z"/>
        <path d="M1557.93,156.33v3.13h12.52v-6.26h-12.52v3.13Z"/>
        <path d="M1576.71,156.33v3.13h6.26v-6.26h-6.26v3.13Z"/>
        <path d="M1676.89,231.46v3.13h6.26v-6.26h-6.26v3.13Z"/>
        <path d="M1676.89,112.5v21.91h43.83v-43.83h-43.83v21.91ZM1714.45,112.5v15.65h-31.3v-31.3h31.3v15.65Z"/>
        <path d="M1689.41,112.5v9.39h18.78v-18.78h-18.78v9.39Z"/>
        <path d="M1589.23,128.15v6.26h6.26v-12.52h-6.26v6.26Z"/>
        <path d="M1708.19,143.8v3.13h6.26v6.26h6.26v-6.26h-6.26v-6.26h-6.26v3.13Z"/>
        <path d="M1714.45,175.11v3.13h6.26v-6.26h-6.26v3.13Z"/>
        <path d="M1545.41,187.63v3.13h-6.26v31.3h6.26v-25.04h12.52v6.26h6.26v-12.52h-12.52v-6.26h-6.26v3.13Z"/>
        <path d="M1714.45,200.15v3.13h6.26v-6.26h-6.26v3.13Z"/>
        <path d="M1551.67,215.8v6.26h12.52v-12.52h-12.52v6.26Z"/>
        <path d="M1539.15,250.24v21.91h43.83v-43.83h-43.83v21.91ZM1576.71,250.24v15.65h-31.3v-31.3h31.3v15.65Z"/>
        <path d="M1551.67,250.24v9.39h18.78v-18.78h-18.78v9.39Z"/>
        <path d="M1714.45,237.72v3.13h6.26v-6.26h-6.26v3.13Z"/>
      </g>
      <g>
        <g class="cls-3">
          <rect class="cls-4" x="1204.33" y="68.26" width="225.39" height="225.39"/>
        </g>
        <path d="M1226.03,111.88v21.91h43.83v-43.83h-43.83v21.91ZM1263.59,111.88v15.65h-31.3v-31.3h31.3v15.65Z"/>
        <path d="M1238.55,111.88v9.39h18.78v-18.78h-18.78v9.39Z"/>
        <path d="M1282.38,93.1v3.13h12.52v6.26h-12.52v6.26h-6.26v12.52h6.26v6.26h-6.26v6.26h6.26v12.52h-6.26v-6.26h-18.78v18.78h12.52v-6.26h-6.26v-6.26h12.52v6.26h6.26v6.26h-6.26v6.26h-12.52v6.26h6.26v6.26h-6.26v6.26h-25.04v-12.52h6.26v-6.26h6.26v6.26h6.26v-6.26h-6.26v-18.78h-12.52v-6.26h-12.52v12.52h6.26v12.52h-6.26v12.52h6.26v6.26h-6.26v6.26h6.26v6.26h-6.26v25.04h6.26v-12.52h6.26v-6.26h6.26v-6.26h6.26v6.26h12.52v6.26h6.26v6.26h-6.26v6.26h12.52v18.78h6.26v12.52h6.26v6.26h-12.52v12.52h12.52v-12.52h6.26v12.52h6.26v-12.52h6.26v-6.26h-18.78v-6.26h25.04v-12.52h12.52v6.26h-6.26v25.04h6.26v-12.52h6.26v-6.26h-6.26v-6.26h6.26v-12.52h12.52v18.78h-6.26v6.26h6.26v6.26h18.78v6.26h12.52v-6.26h6.26v6.26h6.26v6.26h6.26v-12.52h6.26v6.26h6.26v-6.26h-6.26v-6.26h6.26v-18.78h-12.52v-6.26h-6.26v-6.26h18.78v-6.26h-18.78v6.26h-6.26v-6.26h-6.26v-6.26h-6.26v6.26h-6.26v-12.52h18.78v6.26h6.26v-6.26h12.52v6.26h6.26v-12.52h-12.52v-18.78h12.52v-12.52h-6.26v6.26h-6.26v6.26h-12.52v-6.26h-6.26v-6.26h12.52v-6.26h-6.26v-12.52h6.26v6.26h12.52v-6.26h-12.52v-6.26h-12.52v6.26h-6.26v6.26h-6.26v25.04h6.26v6.26h-12.52v-12.52h-6.26v-6.26h6.26v-6.26h-6.26v6.26h-6.26v6.26h-12.52v-12.52h6.26v-6.26h12.52v-6.26h-12.52v-6.26h-6.26v-12.52h6.26v6.26h6.26v6.26h6.26v-6.26h6.26v-12.52h-6.26v-6.26h-12.52v-6.26h12.52v-6.26h6.26v-12.52h-6.26v12.52h-12.52v-6.26h6.26v-6.26h-6.26v6.26h-6.26v6.26h6.26v6.26h-12.52v-6.26h-6.26v-6.26h-6.26v-6.26h-6.26v6.26h-6.26v-6.26h-18.78v3.13ZM1313.68,99.36v3.13h6.26v12.52h6.26v6.26h6.26v-6.26h6.26v6.26h-6.26v6.26h-6.26v6.26h-6.26v-12.52h-6.26v18.78h-6.26v-12.52h-6.26v18.78h6.26v6.26h6.26v6.26h6.26v6.26h6.26v6.26h-6.26v6.26h-6.26v-6.26h6.26v-6.26h-12.52v6.26h-6.26v6.26h6.26v6.26h-6.26v12.52h6.26v-6.26h6.26v6.26h6.26v6.26h-18.78v6.26h12.52v6.26h18.78v-6.26h-6.26v-6.26h18.78v18.78h6.26v6.26h-6.26v-6.26h-6.26v-6.26h-6.26v6.26h-12.52v6.26h-6.26v-6.26h-12.52v6.26h6.26v6.26h-6.26v6.26h-18.78v-18.78h6.26v-6.26h-12.52v-6.26h-6.26v-6.26h-6.26v-6.26h6.26v6.26h6.26v-12.52h-12.52v-6.26h6.26v-6.26h6.26v-6.26h6.26v6.26h12.52v-12.52h6.26v-6.26h6.26v-6.26h-12.52v6.26h-6.26v6.26h-6.26v-6.26h6.26v-6.26h-6.26v-6.26h6.26v6.26h6.26v-12.52h-6.26v-6.26h-6.26v-6.26h6.26v6.26h6.26v-18.78h6.26v-12.52h6.26v-6.26h6.26v3.13ZM1288.64,115.01v6.26h-6.26v-12.52h6.26v6.26ZM1351.25,127.53v6.26h-6.26v-12.52h6.26v6.26ZM1332.46,143.18v3.13h-12.52v-6.26h12.52v3.13ZM1332.46,155.71v3.13h-6.26v-6.26h6.26v3.13ZM1244.81,161.97v3.13h-6.26v6.26h-6.26v-6.26h6.26v-6.26h6.26v3.13ZM1376.29,161.97v3.13h-6.26v-6.26h6.26v3.13ZM1351.25,180.75v3.13h6.26v6.26h25.04v-6.26h-6.26v-6.26h6.26v6.26h6.26v6.26h-6.26v6.26h6.26v6.26h-6.26v-6.26h-31.3v-6.26h-18.78v6.26h-6.26v-6.26h-6.26v-6.26h12.52v-6.26h18.78v3.13ZM1257.33,193.27v3.13h-6.26v-6.26h6.26v3.13ZM1238.55,199.53v3.13h-6.26v-6.26h6.26v3.13ZM1357.51,212.05v3.13h-6.26v-6.26h6.26v3.13ZM1376.29,230.84v9.39h-18.78v-18.78h18.78v9.39ZM1395.07,237.1v3.13h6.26v12.52h-6.26v-6.26h-6.26v-6.26h-6.26v-6.26h12.52v3.13ZM1357.51,249.62v3.13h-6.26v-6.26h6.26v3.13ZM1382.55,249.62v3.13h-18.78v-6.26h18.78v3.13Z"/>
        <path d="M1307.42,111.88v3.13h-6.26v6.26h12.52v-12.52h-6.26v3.13Z"/>
        <path d="M1276.12,187.01v3.13h6.26v-6.26h-6.26v3.13Z"/>
        <path d="M1288.64,199.53v3.13h-12.52v6.26h12.52v6.26h6.26v6.26h6.26v-12.52h-12.52v-6.26h6.26v-6.26h-6.26v3.13Z"/>
        <path d="M1363.77,230.84v3.13h6.26v-6.26h-6.26v3.13Z"/>
        <path d="M1363.77,111.88v21.91h43.83v-43.83h-43.83v21.91ZM1401.33,111.88v15.65h-31.3v-31.3h31.3v15.65Z"/>
        <path d="M1376.29,111.88v9.39h18.78v-18.78h-18.78v9.39Z"/>
        <path d="M1401.33,187.01v3.13h6.26v-6.26h-6.26v3.13Z"/>
        <path d="M1238.55,218.31v3.13h6.26v-6.26h-6.26v3.13Z"/>
        <path d="M1251.07,218.31v3.13h6.26v-6.26h-6.26v3.13Z"/>
        <path d="M1226.03,249.62v21.91h43.83v-43.83h-43.83v21.91ZM1263.59,249.62v15.65h-31.3v-31.3h31.3v15.65Z"/>
        <path d="M1238.55,249.62v9.39h18.78v-18.78h-18.78v9.39Z"/>
        <path d="M1332.46,268.4v3.13h6.26v-6.26h-6.26v3.13Z"/>
      </g>
    </g>
  </g>
</svg>